<svg xmlns="http://www.w3.org/2000/svg" viewBox="0 0 120 160" fill="none">
  <!-- exhaust -->
  <path d="M48 112c-3 14-2 30 5 42 2-10 6-18 11-23 5 8 9 18 9 28 10-15 10-34 5-47l-14-8-16 8z" fill="#E53935" stroke="#111" stroke-width="3" stroke-linejoin="round"/>
  <path d="M54 114c-2 11 0 22 4 32 2-8 4-13 8-17 4 6 6 14 6 22 6-11 6-24 2-35l-10-5-10 3z" fill="#FB8C00" stroke="#111" stroke-width="2.4" stroke-linejoin="round"/>
  <path d="M60 116c0 8 1 16 4 23 1-5 3-9 5-12 2 4 4 10 4 16 4-8 4-17 1-26l-7-3-7 2z" fill="#FFEB3B" stroke="#111" stroke-width="2" stroke-linejoin="round"/>
  <!-- fins -->
  <path d="M34 90L14 116c-2 3 0 7 4 7h20l8-14-12-19z" fill="#26A69A" stroke="#111" stroke-width="3" stroke-linejoin="round"/>
  <path d="M86 90l20 26c2 3 0 7-4 7H82l-8-14 12-19z" fill="#26A69A" stroke="#111" stroke-width="3" stroke-linejoin="round"/>
  <path d="M52 100h16l6 22H46l6-22z" fill="#00897B" stroke="#111" stroke-width="3" stroke-linejoin="round"/>
  <!-- body -->
  <path d="M40 100c-3-28 3-54 20-80 17 26 23 52 20 80H40z" fill="#1E88E5" stroke="#111" stroke-width="3.2" stroke-linejoin="round"/>
  <path d="M48 94c-1.5-20 3-40 14-60 1.5 3 3 7 4 11-8 18-12 36-10 49H48z" fill="#64B5F6" opacity=".55"/>
  <!-- nose -->
  <path d="M60 6c11 16 16 32 18 46H42C44 38 49 22 60 6z" fill="#E53935" stroke="#111" stroke-width="3.2" stroke-linejoin="round"/>
  <path d="M56 18c3-5 6-11 10-16 1.5 4 3 8 4 12-3 5-5 10-7 15h-7z" fill="#FF7043" opacity=".75"/>
  <!-- window -->
  <circle cx="60" cy="62" r="12" fill="#4FC3F7" stroke="#111" stroke-width="3.2"/>
  <circle cx="55" cy="57" r="4" fill="#fff" opacity=".85"/>
</svg>
